<svg xmlns="http://www.w3.org/2000/svg" viewBox="0 0 200 200" width="200" height="200"><defs><linearGradient id="g" x1="0" y1="0" x2="0" y2="1"><stop offset="0" stop-color="#e6eee7"/><stop offset="1" stop-color="#d3e1d6"/></linearGradient></defs><rect width="200" height="200" fill="url(#g)"/><path d="M30 200 Q34 150 100 146 Q166 150 170 200 Z" fill="#7a8f7c"/><path d="M88 148 L100 172 L112 148 Z" fill="#f6f4ef"/><rect x="89" y="118" width="22" height="32" rx="8" fill="#8f5836"/><ellipse cx="66" cy="94" rx="7" ry="10" fill="#8f5836"/><ellipse cx="134" cy="94" rx="7" ry="10" fill="#8f5836"/><ellipse cx="100" cy="90" rx="34" ry="40" fill="#a86c45"/><path d="M66 82 Q64 50 100 48 Q136 50 134 82 Q128 64 100 62 Q72 64 66 82 Z" fill="#d8d6d0"/><path d="M80 80 Q87 76 94 80 M106 80 Q113 76 120 80" stroke="#6d6a64" stroke-width="2.6" fill="none" stroke-linecap="round"/><circle cx="87" cy="90" r="3.4" fill="#2a211c"/><circle cx="113" cy="90" r="3.4" fill="#2a211c"/><path d="M93 108 Q100 114 107 108" stroke="#7a3f33" stroke-width="2.4" fill="none" stroke-linecap="round"/><path d="M100 92 Q97 100 100 102" stroke="#8f5836" stroke-width="2" fill="none" stroke-linecap="round"/><g fill="none" stroke="#3a3a3a" stroke-width="2.2"><rect x="76" y="83" width="20" height="14" rx="5"/><rect x="104" y="83" width="20" height="14" rx="5"/><path d="M96 89 L104 89"/></g></svg>